<svg version="1.2" xmlns="http://www.w3.org/2000/svg" viewBox="0 0 38 38" width="38" height="38"><style>.a{fill:#c51def}.b{fill:#fff}</style><path class="a" d="m0.7 0h37.1v38h-37.1z"/><path fill-rule="evenodd" class="b" d="m24.9 19c0 3.2-2.5 5.8-5.6 5.8-3.1 0-5.7-2.6-5.7-5.8 0-3.2 2.6-5.8 5.7-5.8 3.1 0 5.6 2.6 5.6 5.8zm-1.9 0c0-2.1-1.7-3.8-3.7-3.8-2 0-3.7 1.7-3.7 3.8 0 2.1 1.7 3.8 3.7 3.8 2 0 3.7-1.7 3.7-3.8zm7.2-4.7c0.1 2.1 0.1 7.3 0 9.3-0.1 3.4-1.7 5.3-3.7 6.1-1.5 0.6-3 0.6-7.2 0.6-4.2 0-7 0.3-9.2-1.9-2.1-2.2-1.8-5-1.8-9.4 0-4.3-0.3-7.2 1.8-9.4 1.3-1.3 2.9-1.7 4.6-1.8 2.1-0.1 7.1-0.1 9.1 0 4.2 0.2 6.2 2.6 6.4 6.5zm-1.9 4.7c0-3 0-3.4-0.1-4.6-0.2-5.2-4-4.7-8.9-4.7h-0.1c-2.9 0-3.2 0-4.4 0.1-5.1 0.2-4.6 4-4.6 9.2 0 3.8-0.3 6.4 1.3 7.9 1.3 1.4 3.2 1.3 7.8 1.3 4.4 0 6.3 0.2 7.7-1.3 1.4-1.4 1.3-3.3 1.3-7.9zm-1.8-6c0 0.7-0.6 1.3-1.3 1.3-0.8 0-1.4-0.6-1.4-1.3 0-0.8 0.6-1.4 1.4-1.4 0.7 0 1.3 0.6 1.3 1.4z"/></svg>