<svg version="1.2" xmlns="http://www.w3.org/2000/svg" viewBox="0 0 38 38" width="38" height="38"><style>.a{fill:#00d2ff}.b{fill:#fff}</style><path class="a" d="m0.9 0h37.1v38h-37.1z"/><path class="b" d="m28.7 14.6q1.4-1 2.3-2.5-1.3 0.6-2.7 0.8c1-0.6 1.7-1.5 2.1-2.6q-1.4 0.8-3 1.1c-0.8-0.9-2-1.5-3.3-1.5-2.6 0-4.7 2.1-4.7 4.7q0 0.6 0.1 1.1c-3.8-0.2-7.2-2.1-9.5-4.9-0.4 0.7-0.6 1.5-0.6 2.4 0 1.6 0.8 3 2 3.9-0.7 0-1.4-0.2-2.1-0.6q0 0 0 0.1c0 2.3 1.6 4.2 3.7 4.6q-0.5 0.2-1.2 0.2-0.4 0-0.8-0.1c0.6 1.8 2.3 3.2 4.3 3.3-1.6 1.2-3.6 2-5.8 2q-0.5 0-1.1-0.1c2.1 1.4 4.5 2.1 7.1 2.1 8.2 0 13.5-6.9 13.2-14z"/></svg>