<svg version="1.2" xmlns="http://www.w3.org/2000/svg" viewBox="0 0 23 22" width="23" height="22"><style>.a{fill:#eb7f4e}</style><path  d="m0.9 0h21.5v22h-21.5z"/><path fill-rule="evenodd" class="a" d="m14.9 11c0 1.8-1.4 3.3-3.2 3.3-1.8 0-3.3-1.5-3.3-3.3 0-1.9 1.5-3.4 3.3-3.4 1.8 0 3.2 1.5 3.2 3.4zm-1.1 0c0-1.2-1-2.2-2.1-2.2-1.2 0-2.2 1-2.2 2.2 0 1.2 1 2.2 2.2 2.2 1.1 0 2.1-1 2.1-2.2zm4.2-2.7c0.1 1.2 0.1 4.2 0 5.4-0.1 1.9-1 3-2.2 3.5-0.8 0.3-1.7 0.3-4.1 0.3-2.4 0-4.1 0.2-5.3-1.1-1.2-1.2-1.1-2.9-1.1-5.4 0-2.5-0.2-4.2 1.1-5.4 0.7-0.8 1.6-1.1 2.6-1.1 1.2-0.1 4.1-0.1 5.3 0 2.4 0.1 3.6 1.5 3.7 3.8zm-1.1 2.7c0-1.8 0-2 0-2.6-0.2-3.1-2.4-2.8-5.2-2.8h-0.1c-1.7 0-1.9 0-2.5 0.1-3 0.1-2.7 2.3-2.7 5.3 0 2.2-0.1 3.7 0.7 4.6 0.8 0.8 1.9 0.7 4.5 0.7 2.6 0 3.7 0.1 4.6-0.7 0.7-0.8 0.7-1.9 0.7-4.6zm-1.1-3.5c0 0.4-0.3 0.8-0.7 0.8-0.5 0-0.8-0.4-0.8-0.8 0-0.4 0.3-0.8 0.8-0.8 0.4 0 0.7 0.4 0.7 0.8z"/></svg>