<svg version="1.2" xmlns="http://www.w3.org/2000/svg" viewBox="0 0 22 22" width="22" height="22"><style>.a{fill:#eb7f4e}</style><path  d="m0.5 0h21.5v22h-21.5z"/><path class="a" d="m16.6 8.4q0.8-0.5 1.4-1.4-0.8 0.3-1.6 0.5c0.6-0.4 1-0.9 1.2-1.6q-0.8 0.5-1.7 0.7c-0.5-0.5-1.2-0.9-2-0.9-1.5 0-2.6 1.3-2.6 2.8q-0.1 0.3 0 0.6c-2.2-0.1-4.2-1.2-5.5-2.9q-0.4 0.7-0.4 1.4c0 1 0.5 1.8 1.2 2.3-0.4 0-0.8-0.1-1.2-0.3q0 0 0 0c0 1.3 0.9 2.4 2.1 2.7q-0.3 0.1-0.7 0.1-0.2 0-0.5-0.1c0.4 1.1 1.4 1.9 2.5 1.9-0.9 0.8-2 1.2-3.3 1.2q-0.3 0-0.6 0c1.2 0.7 2.6 1.2 4.1 1.2 4.7 0 7.8-4 7.6-8.2z"/></svg>