<svg width="20" height="10" viewBox="0 0 20 10" fill="none" xmlns="http://www.w3.org/2000/svg">
<path d="M9 2.98023e-06H5C3.61667 2.98023e-06 2.43767 0.48767 1.463 1.463C0.488334 2.43834 0.000667349 3.61734 6.82594e-07 5C-0.000665984 6.38267 0.487001 7.56167 1.463 8.537C2.439 9.51233 3.618 10 5 10H9V8H5C4.16667 8 3.45833 7.70833 2.875 7.125C2.29167 6.54167 2 5.83333 2 5C2 4.16667 2.29167 3.45834 2.875 2.875C3.45833 2.29167 4.16667 2 5 2H9V2.98023e-06ZM6 4V6H14V4H6ZM11 2.98023e-06V2H15C15.8333 2 16.5417 2.29167 17.125 2.875C17.7083 3.45834 18 4.16667 18 5C18 5.83333 17.7083 6.54167 17.125 7.125C16.5417 7.70833 15.8333 8 15 8H11V10H15C16.3833 10 17.5627 9.51233 18.538 8.537C19.5133 7.56167 20.0007 6.38267 20 5C19.9993 3.61734 19.5117 2.438 18.537 1.462C17.5623 0.486003 16.3833 -0.00133035 15 2.98023e-06H11Z" fill="#8DC73F"/>
</svg>
